<?xml version="1.0" encoding="utf-8"?>
<!-- Generator: Adobe Illustrator 27.5.0, SVG Export Plug-In . SVG Version: 6.00 Build 0)  -->
<svg version="1.1" xmlns="http://www.w3.org/2000/svg" xmlns:xlink="http://www.w3.org/1999/xlink" x="0px" y="0px"
	 viewBox="0 0 3710 3710" style="enable-background:new 0 0 3710 3710;" xml:space="preserve">
<g id="Background">
	<g>
		<g>
			<rect style="fill:#FFFFFF;" width="3710" height="3710"/>
		</g>
	</g>
</g>
<g id="Illustration">
	<g>
		<linearGradient id="SVGID_1_" gradientUnits="userSpaceOnUse" x1="3584.6479" y1="4066.4778" x2="1103.4333" y2="984.965">
			<stop  offset="0" style="stop-color:#DAE3FE"/>
			<stop  offset="1" style="stop-color:#E9EFFD"/>
		</linearGradient>
		<path style="fill:url(#SVGID_1_);" d="M2902.05,2851.24c-56.992,59.999-110.918,98.692-153.524,129.262
			c-500.822,359.345-1093.427,254.598-1219.372,229.018c-185.982-37.774-545.48-110.79-805.391-416.44
			C330.539,2330.657,391.77,1602.123,696.78,1121.207c55.791-87.968,350.497-576.209,949.485-654.507
			c362.501-47.385,785.061,48.185,1091.067,304.558C3379.666,1309.406,3333.939,2396.562,2902.05,2851.24z"/>
		<g>
			<path style="fill:#91B3FA;" d="M1920.177,472.864c-5.657-9.994,7.353-21.538,18.787-16.744
				c116.106,48.68,408.24,210.693,468.445,625.43c75.536,520.35,249.386,667.468,431.958,734.841c0,0-221.375,7.923-405.113-139.217
				C1983.136,1315.91,2020.759,650.56,1920.177,472.864z"/>
			<path style="fill:#FFFFFF;" d="M2037.226,608.077c28.001,52.202,54.776,104.947,79.246,158.638
				c24.795,53.545,47.679,107.861,68.551,162.866c20.624,55.088,40.042,110.592,56.689,166.932
				c16.94,56.251,31.061,113.276,45.008,170.589c14.308,57.186,28.347,114.893,49.247,171.033
				c20.797,56.043,49.717,110.255,89.44,157.389c9.918,11.742,20.132,23.352,31.068,34.258c10.696,11.107,21.99,21.758,33.511,32.21
				c23.176,20.799,48.08,40.16,74.648,57.681c53.256,34.919,113.149,62.199,176.05,81.717c6.621,2.054,14.303-1.172,17.16-7.205
				c2.805-5.924-0.087-12.353-6.461-14.528l-0.045-0.015c-15.112-5.142-30.125-10.435-44.766-16.323
				c-7.385-2.837-14.585-5.968-21.859-8.973c-7.115-3.255-14.398-6.256-21.373-9.71c-28.197-13.376-55.136-28.567-80.51-45.537
				c-50.901-33.669-95.75-74.657-133.794-119.619c-18.722-22.699-35.405-46.713-49.83-71.93
				c-14.404-25.23-26.543-51.635-36.925-78.793c-20.781-54.346-35.22-111.324-50.002-168.383
				c-14.871-57.049-30.267-114.255-48.362-170.624c-8.958-28.208-18.502-56.231-28.625-84.047
				c-4.968-13.94-10.249-27.771-15.5-41.609c-5.406-13.784-10.9-27.533-16.524-41.231c-22.615-54.749-47.169-108.728-73.685-161.808
				c-26.815-52.947-55.272-105.133-86.05-156.101c-0.88-1.457-2.989-1.912-4.712-1.016
				C2037.147,604.807,2036.458,606.638,2037.226,608.077z"/>
		</g>
		<g>
			<g>
				<path style="fill:#BDD0FB;" d="M2512.913,1597.976c-7.94,15.574-29.206,17.978-40.595,4.717
					c-62.849-73.171-221.836-296.121-162.641-623.802c49.987-276.711,50.796-431.506,46.294-501.802
					c-0.952-14.865,17.626-22.305,27.22-10.911C2489.039,591.887,2800.623,1033.642,2512.913,1597.976z"/>
				<path style="fill:#FFFFFF;" d="M2489.407,1595.187c-0.388,0.193-0.799,0.351-1.233,0.47c-3.633,1.002-7.392-1.132-8.393-4.765
					c-1.135-4.12-112.958-416.379-60.835-804.267c0.503-3.732,3.937-6.355,7.675-5.856c3.736,0.503,6.357,3.938,5.856,7.675
					c-51.745,385.065,59.335,794.728,60.463,798.82C2493.823,1590.464,2492.273,1593.761,2489.407,1595.187z"/>
			</g>
		</g>
		<g>
			<g>
				<path style="fill:#7D97F4;" d="M3090.124,3232.53h-838.007V1678.432c0-76.189,61.763-137.952,137.952-137.952h562.102
					c76.189,0,137.953,61.763,137.953,137.953V3232.53z"/>
				<path style="fill:#91B3FA;" d="M2843.077,3232.53H2005.07V1580.905c0-22.326,18.099-40.424,40.424-40.424h757.159
					c22.326,0,40.424,18.099,40.424,40.424V3232.53z"/>
				<g>
					<path style="fill:#BDD0FB;" d="M2074.246,1848.95c-2.826,0-5.119-2.291-5.119-5.119v-128.438
						c0-67.814,62.07-122.986,138.364-122.986h220.347c2.826,0,5.119,2.291,5.119,5.119s-2.293,5.119-5.119,5.119h-220.347
						c-70.648,0-128.126,50.578-128.126,112.748v128.438C2079.365,1846.659,2077.072,1848.95,2074.246,1848.95z"/>
					<path style="fill:#FFFFFF;" d="M2074.246,1985.136c-2.826,0-5.119-2.291-5.119-5.119v-52.327c0-2.828,2.293-5.119,5.119-5.119
						c2.826,0,5.119,2.291,5.119,5.119v52.327C2079.365,1982.845,2077.072,1985.136,2074.246,1985.136z"/>
				</g>
			</g>
			<g>
				
					<linearGradient id="SVGID_00000177460650353990241560000010424028006666019203_" gradientUnits="userSpaceOnUse" x1="1273.2386" y1="2565.4878" x2="2940.3933" y2="2553.7058">
					<stop  offset="0" style="stop-color:#FF928E"/>
					<stop  offset="1" style="stop-color:#FE7062"/>
				</linearGradient>
				<path style="fill:url(#SVGID_00000177460650353990241560000010424028006666019203_);" d="M2277.962,3232.53h-850.925V1930.399
					c0-22.326,18.099-40.424,40.424-40.424h770.076c22.326,0,40.424,18.099,40.424,40.424V3232.53z"/>
				
					<linearGradient id="SVGID_00000165923291247477862650000003220628176379249852_" gradientUnits="userSpaceOnUse" x1="2286.584" y1="1582.4014" x2="200.6457" y2="4767.9858">
					<stop  offset="0" style="stop-color:#FF928E"/>
					<stop  offset="1" style="stop-color:#FE7062"/>
				</linearGradient>
				<path style="fill:url(#SVGID_00000165923291247477862650000003220628176379249852_);" d="M2061.805,3232.53H1210.88V1930.399
					c0-22.326,18.099-40.424,40.424-40.424h770.076c22.326,0,40.424,18.099,40.424,40.424V3232.53z"/>
				<g style="opacity:0.68;">
					<path style="fill:#FFFFFF;" d="M1267.932,2141.174c-2.826,0-5.119-2.291-5.119-5.119v-95.252
						c0-51.021,46.624-92.529,103.935-92.529h163.409c2.826,0,5.119,2.291,5.119,5.119s-2.293,5.119-5.119,5.119h-163.409
						c-51.666,0-93.697,36.916-93.697,82.291v95.252C1273.051,2138.882,1270.758,2141.174,1267.932,2141.174z"/>
					<path style="fill:#FFFFFF;" d="M1267.932,2242.171c-2.826,0-5.119-2.291-5.119-5.119v-38.807c0-2.828,2.293-5.119,5.119-5.119
						c2.826,0,5.119,2.291,5.119,5.119v38.807C1273.051,2239.879,1270.758,2242.171,1267.932,2242.171z"/>
				</g>
			</g>
			<g>
				<path style="fill:#7D97F4;" d="M1414.131,3232.53H680.908v-810.3c0-76.189,61.763-137.952,137.952-137.952h457.318
					c76.189,0,137.953,61.764,137.953,137.953V3232.53z"/>
				<path style="fill:#91B3FA;" d="M1197.974,3232.53H464.751v-907.828c0-22.326,18.099-40.424,40.424-40.424h652.375
					c22.326,0,40.424,18.099,40.424,40.424V3232.53z"/>
				<g>
					<path style="fill:#BDD0FB;" d="M525.279,2554.818c-2.826,0-5.119-2.291-5.119-5.119v-112.38
						c0-59.688,54.595-108.247,121.701-108.247h192.796c2.826,0,5.119,2.291,5.119,5.119c0,2.828-2.293,5.119-5.119,5.119H641.861
						c-61.46,0-111.463,43.967-111.463,98.009v112.38C530.397,2552.527,528.105,2554.818,525.279,2554.818z"/>
					<path style="fill:#BDD0FB;" d="M525.279,2673.975c-2.826,0-5.119-2.291-5.119-5.119v-45.785c0-2.828,2.293-5.119,5.119-5.119
						c2.826,0,5.119,2.291,5.119,5.119v45.785C530.397,2671.684,528.105,2673.975,525.279,2673.975z"/>
				</g>
			</g>
		</g>
		<g>
			
				<linearGradient id="SVGID_00000042014417559050611790000002836844613222758804_" gradientUnits="userSpaceOnUse" x1="1937.1644" y1="248.1926" x2="1691.4564" y2="753.2589">
				<stop  offset="0" style="stop-color:#4F52FF"/>
				<stop  offset="1" style="stop-color:#4042E2"/>
			</linearGradient>
			<path style="fill:url(#SVGID_00000042014417559050611790000002836844613222758804_);" d="M1430.627,1166.712l-65.531,100.814
				c30.484,59.389,64.344,92.175,98.219,107.76c6.049-37.001,27.658-67.713,43.524-85.956
				C1446.41,1254.958,1430.627,1166.712,1430.627,1166.712z"/>
			
				<linearGradient id="SVGID_00000124852261153452613160000015857636877530435758_" gradientUnits="userSpaceOnUse" x1="1704.8225" y1="1252.9922" x2="1212.4928" y2="1491.491">
				<stop  offset="0" style="stop-color:#FEBBBA"/>
				<stop  offset="1" style="stop-color:#FF928E"/>
			</linearGradient>
			<path style="fill:url(#SVGID_00000124852261153452613160000015857636877530435758_);" d="M1655.776,1271.233
				c-67.091,39.709-115.039,37.38-148.935,18.098c-15.866,18.243-37.475,48.956-43.524,85.956
				c107.687,49.547,215.522-75.161,215.522-75.161L1655.776,1271.233z"/>
			
				<linearGradient id="SVGID_00000153666426717461427200000015548165348344830398_" gradientUnits="userSpaceOnUse" x1="1707.1709" y1="1257.8397" x2="1214.8412" y2="1496.3385">
				<stop  offset="0" style="stop-color:#FEBBBA"/>
				<stop  offset="1" style="stop-color:#FF928E"/>
			</linearGradient>
			<path style="fill:url(#SVGID_00000153666426717461427200000015548165348344830398_);" d="M1659.427,1288.502
				c0,0-18.111-31.576,7.935-55.822c0,0,8.398-9.58,17.62,4.495c0,0,28.021-25.438,35.684-15.191
				c7.663,10.247,27.975,35.619,8.137,64.558C1708.741,1315.808,1668.274,1302.764,1659.427,1288.502z"/>
			<path style="fill:#F79E6D;" d="M1686.964,1271.06c-2.696,0-5.582-0.5-8.142-2.016c-2.499-1.48-5.645-4.567-6.449-10.869
				c-0.237-1.87,1.086-3.579,2.956-3.818c1.89-0.235,3.579,1.085,3.816,2.954c0.37,2.904,1.4,4.822,3.153,5.86
				c2.403,1.423,5.989,1.155,8.668,0.593l-6.302-19.984c-0.566-1.798,0.433-3.714,2.23-4.281c1.81-0.57,3.716,0.43,4.282,2.228
				l7.352,23.317c0.536,1.711-0.34,3.546-2.006,4.202C1695.839,1269.515,1691.703,1271.058,1686.964,1271.06z"/>
			
				<linearGradient id="SVGID_00000090995100660843974660000013681500057745208481_" gradientUnits="userSpaceOnUse" x1="698.4594" y1="2032.594" x2="775.5363" y2="2032.594">
				<stop  offset="0" style="stop-color:#4F52FF"/>
				<stop  offset="1" style="stop-color:#4042E2"/>
			</linearGradient>
			<path style="fill:url(#SVGID_00000090995100660843974660000013681500057745208481_);" d="M706.219,1948.278
				c-5.831,3.51-8.811,10.902-7.422,18.145c5.469,28.505,23.449,103.8,67.123,148.374c2.884,2.943,7.08,2.682,9.616,0.028
				c-11.059-11.521-24.772-31.215-40.8-64.661C710.1,1998.761,705.537,1967.057,706.219,1948.278z"/>
			
				<linearGradient id="SVGID_00000018954128440130004790000006194584616925800123_" gradientUnits="userSpaceOnUse" x1="706.156" y1="2027.7483" x2="788.1758" y2="2027.7483">
				<stop  offset="0" style="stop-color:#09005D"/>
				<stop  offset="1" style="stop-color:#1A0F91"/>
			</linearGradient>
			<path style="fill:url(#SVGID_00000018954128440130004790000006194584616925800123_);" d="M762.613,1947.213
				c0,0-28.159-15.317-56.198,0.928c-0.07,0.04-0.128,0.096-0.196,0.137c-0.682,18.779,3.881,50.483,28.517,101.886
				c16.029,33.446,29.741,53.139,40.8,64.661c0.802-0.839,1.448-1.906,1.821-3.204
				C785.561,2083.122,802.883,2003.936,762.613,1947.213z"/>
			
				<linearGradient id="SVGID_00000001644870935557888200000016219611400860423869_" gradientUnits="userSpaceOnUse" x1="747.103" y1="1944.8126" x2="807.4171" y2="1944.8126">
				<stop  offset="0" style="stop-color:#FEBBBA"/>
				<stop  offset="1" style="stop-color:#FF928E"/>
			</linearGradient>
			<path style="fill:url(#SVGID_00000001644870935557888200000016219611400860423869_);" d="M803.284,1948.986l-25.518,24.483
				c-4.513,4.331-11.435,5.028-16.646,1.569c-4.546-3.017-9.606-7.966-12.974-15.985c-2.021-4.812-1.051-10.38,2.46-14.243
				l25.476-28.023c6.081-6.688,16.899-5.582,21.499,2.199l7.966,13.473C808.72,1937.825,807.783,1944.67,803.284,1948.986z"/>
			
				<linearGradient id="SVGID_00000018958731635673905720000015287364942149066898_" gradientUnits="userSpaceOnUse" x1="1628.0576" y1="1755.8558" x2="1743.6008" y2="1755.8558">
				<stop  offset="0" style="stop-color:#4F52FF"/>
				<stop  offset="1" style="stop-color:#4042E2"/>
			</linearGradient>
			<path style="fill:url(#SVGID_00000018958731635673905720000015287364942149066898_);" d="M1628.058,1826.175
				c5.933,3.335,13.832,2.272,19.442-2.516c22.077-18.842,78.646-71.686,95.811-131.683c1.133-3.962-1.168-7.48-4.728-8.373
				c-4.55,15.308-14.893,36.962-36.046,67.426C1670.025,1797.85,1644.719,1817.486,1628.058,1826.175z"/>
			
				<linearGradient id="SVGID_00000078755549902650691500000015736848512207863477_" gradientUnits="userSpaceOnUse" x1="1599.2595" y1="1754.7758" x2="1738.5819" y2="1754.7758">
				<stop  offset="0" style="stop-color:#09005D"/>
				<stop  offset="1" style="stop-color:#1A0F91"/>
			</linearGradient>
			<path style="fill:url(#SVGID_00000078755549902650691500000015736848512207863477_);" d="M1599.26,1777.677
				c0,0,0.601,32.05,28.582,48.396c0.07,0.041,0.147,0.063,0.217,0.102c16.662-8.688,41.968-28.324,74.478-75.147
				c21.154-30.464,31.496-52.118,36.046-67.426c-1.126-0.283-2.373-0.317-3.685-0.001
				C1706.067,1690.556,1628.668,1714.633,1599.26,1777.677z"/>
			
				<linearGradient id="SVGID_00000147184107905326884460000011235714820681016484_" gradientUnits="userSpaceOnUse" x1="1562.3247" y1="1750.7407" x2="1628.5901" y2="1750.7407">
				<stop  offset="0" style="stop-color:#FEBBBA"/>
				<stop  offset="1" style="stop-color:#FF928E"/>
			</linearGradient>
			<path style="fill:url(#SVGID_00000147184107905326884460000011235714820681016484_);" d="M1597.285,1724.606l26.664,23.229
				c4.716,4.108,6.03,10.94,3.05,16.44c-2.599,4.797-7.075,10.28-14.762,14.351c-4.613,2.444-10.245,1.974-14.406-1.178
				l-30.187-22.87c-7.205-5.458-7.069-16.332,0.269-21.61l12.707-9.138C1585.683,1720.189,1592.584,1720.51,1597.285,1724.606z"/>
			
				<linearGradient id="SVGID_00000028315903815529800690000012724000331043496855_" gradientUnits="userSpaceOnUse" x1="1153.2068" y1="1538.2988" x2="349.577" y2="2372.6414">
				<stop  offset="0" style="stop-color:#09005D"/>
				<stop  offset="1" style="stop-color:#1A0F91"/>
			</linearGradient>
			<path style="fill:url(#SVGID_00000028315903815529800690000012724000331043496855_);" d="M1062.296,1489.502
				c0,0-52.03,177.253-85.669,255.16c0,0-58.803,8.97-95.198,30.236c-36.395,21.266-114.789,139.128-114.789,139.128
				s20.473,38.865,45.175,44.828l223.167-154.629l178.107-207.125l-8.454-96.069L1062.296,1489.502z"/>
			
				<linearGradient id="SVGID_00000108988746632695672450000007518883930203364000_" gradientUnits="userSpaceOnUse" x1="2482.877" y1="1028.0195" x2="1561.5164" y2="1493.8177">
				<stop  offset="0" style="stop-color:#09005D"/>
				<stop  offset="1" style="stop-color:#1A0F91"/>
			</linearGradient>
			<path style="fill:url(#SVGID_00000108988746632695672450000007518883930203364000_);" d="M1065.502,1475.042l-15.225,48.54
				c0,0,13.926,127.256,174.356,105.797c160.431-21.459,180.594-47.65,180.594-47.65s-13.927,81.274,161.498,178.994
				c0,0,26.665-20.129,32.534-42.987l-122.934-202.62c-17.1-26.578-32.957-33.578-64.181-28.695
				c-69.04,10.797-198.315,24.87-217.88,21.53L1065.502,1475.042z"/>
			
				<linearGradient id="SVGID_00000125594753335787258920000014911775589643998108_" gradientUnits="userSpaceOnUse" x1="1736.1434" y1="150.3969" x2="1490.4352" y2="655.4637">
				<stop  offset="0" style="stop-color:#4F52FF"/>
				<stop  offset="1" style="stop-color:#4042E2"/>
			</linearGradient>
			<path style="fill:url(#SVGID_00000125594753335787258920000014911775589643998108_);" d="M1190.801,1114.1
				c-46.753,2.378-120.655,24.603-168.393,68.551c14.673,16.197,37.251,42.533,54.08,68.548
				c15.038-14.119,36.633-25.878,67.038-33.409c-26.281,98.223-57.344,191.803-95.198,278.789
				c-2.369,5.444,0.329,11.742,5.936,13.695c29.291,10.207,115.672,34.518,184.956-4.633l153.604-219.943
				c16.52-23.653,27.379-50.789,31.739-79.309l6.066-39.677C1430.627,1166.712,1292.674,1108.921,1190.801,1114.1z"/>
			
				<linearGradient id="SVGID_00000066483794550857804530000005221477275745870485_" gradientUnits="userSpaceOnUse" x1="1093.8292" y1="1413.985" x2="800.8167" y2="896.1019">
				<stop  offset="0" style="stop-color:#FEBBBA"/>
				<stop  offset="1" style="stop-color:#FF928E"/>
			</linearGradient>
			<path style="fill:url(#SVGID_00000066483794550857804530000005221477275745870485_);" d="M1107.029,1446.933
				c-6.676-14.741-29.531-28.514-40.44-34.432c-9.49-19.562-47.369-107.538,9.899-161.302
				c-16.829-26.015-39.407-52.351-54.08-68.548c-55.08,50.707-75.243,130.363,21.344,241.894
				c-5.272,27.47,11.93,59.458,21.232,63.941C1069.269,1490.552,1115.901,1466.524,1107.029,1446.933z"/>
			
				<linearGradient id="SVGID_00000018932157950156931400000016302766854400389786_" gradientUnits="userSpaceOnUse" x1="1279.8016" y1="293.2596" x2="1136.4723" y2="1532.0382">
				<stop  offset="0" style="stop-color:#CB236D"/>
				<stop  offset="1" style="stop-color:#4C246D"/>
			</linearGradient>
			<path style="fill:url(#SVGID_00000018932157950156931400000016302766854400389786_);" d="M1152.408,1214.353l42.708-9.217
				L1152.408,1214.353z"/>
			
				<linearGradient id="SVGID_00000013906192485800577970000016138694650981047982_" gradientUnits="userSpaceOnUse" x1="1279.0586" y1="1192.3518" x2="1309.7229" y2="1104.902">
				<stop  offset="0" style="stop-color:#FEBBBA"/>
				<stop  offset="1" style="stop-color:#FF928E"/>
			</linearGradient>
			<path style="fill:url(#SVGID_00000013906192485800577970000016138694650981047982_);" d="M1294.556,1055.681l-40.13,78.548
				c-2.448,4.792-1.72,10.583,1.875,14.587c9.717,10.823,32.668,28.402,72.589,15.804c4.401-1.389,7.569-5.258,8.238-9.825
				l10.451-71.337L1294.556,1055.681z"/>
			<g>
				
					<linearGradient id="SVGID_00000176746577597137003930000011663812436738967700_" gradientUnits="userSpaceOnUse" x1="1366.3909" y1="1012.0652" x2="1231.8357" y2="1115.0204">
					<stop  offset="0" style="stop-color:#FEBBBA"/>
					<stop  offset="1" style="stop-color:#FF928E"/>
				</linearGradient>
				<path style="fill:url(#SVGID_00000176746577597137003930000011663812436738967700_);" d="M1361.457,964.473
					c0,0,23.537,54.069,25.118,82.448c1.581,28.379,7.696,46.794-25.118,52.508c-32.814,5.715-60.457-10.632-75.432-38.9
					c0,0-23.464-43.559-18.2-61.398C1273.088,981.292,1361.457,964.473,1361.457,964.473z"/>
				
					<linearGradient id="SVGID_00000052786914401490173280000014807603269148892061_" gradientUnits="userSpaceOnUse" x1="1271.67" y1="930.5472" x2="1396.9871" y2="1091.8925">
					<stop  offset="0" style="stop-color:#09005D"/>
					<stop  offset="1" style="stop-color:#1A0F91"/>
				</linearGradient>
				<path style="fill:url(#SVGID_00000052786914401490173280000014807603269148892061_);" d="M1297.238,1040.204l1.868-0.823
					c2.378-1.048,3.395-3.879,2.201-6.187c-4.627-8.941-13.648-29.428-1.994-34.207c15.018-6.159,74.506-18.291,87.341-39.399
					c12.336-20.287,1.406-46.475-15.02-53.923c-1.099-0.498-2.395-0.103-2.959,0.964l-1.369,2.59
					c-0.937,1.773-3.556,1.504-4.113-0.422l0,0c-0.535-1.85-2.995-2.208-4.015-0.576c-3.945,6.315-14.597,16.553-43.081,21.81
					c-40.481,7.472-67.245,23.854-67.911,51.826c-0.042,1.778-1.932,2.765-3.451,1.84c-2.989-1.821-7.772-2.676-14.165,2.699
					c-11.117,9.348-6.568,33.597,17.804,53.544c1.158,0.948,1.148,2.755-0.105,3.571c-4.418,2.876-11.005,9.72,6.062,18.843
					c17.652,9.436,30.834,8.662,35.91,7.824c1.263-0.208,2.077-1.431,1.801-2.681l-5.418-24.586c-0.307-1.391,0.753-2.71,2.178-2.71
					H1297.238z"/>
				
					<linearGradient id="SVGID_00000146483130459110926600000014789680976970403003_" gradientUnits="userSpaceOnUse" x1="1349.7009" y1="990.2524" x2="1215.1455" y2="1093.2078">
					<stop  offset="0" style="stop-color:#FEBBBA"/>
					<stop  offset="1" style="stop-color:#FF928E"/>
				</linearGradient>
				<path style="fill:url(#SVGID_00000146483130459110926600000014789680976970403003_);" d="M1298.257,1045.392
					c0,0-8.98-34.538-24.465-24.855c-15.485,9.684,8.036,38.699,20.485,39.992L1298.257,1045.392z"/>
			</g>
		</g>
		<g>
			
				<linearGradient id="SVGID_00000067210882239187667250000003243035154242973583_" gradientUnits="userSpaceOnUse" x1="3253.9373" y1="-189.3199" x2="2974.1025" y2="431.7773">
				<stop  offset="0" style="stop-color:#FF928E"/>
				<stop  offset="1" style="stop-color:#FE7062"/>
			</linearGradient>
			<polygon style="fill:url(#SVGID_00000067210882239187667250000003243035154242973583_);" points="2626.584,1476.472 
				2573.67,1476.472 2490.49,1231.791 2721.705,1217.748 			"/>
			
				<linearGradient id="SVGID_00000018224814758417279420000018295629856811207321_" gradientUnits="userSpaceOnUse" x1="2489.6006" y1="1403.7562" x2="2598.8049" y2="816.7839">
				<stop  offset="0" style="stop-color:#FF928E"/>
				<stop  offset="1" style="stop-color:#FE7062"/>
			</linearGradient>
			<path style="fill:url(#SVGID_00000018224814758417279420000018295629856811207321_);" d="M2349.747,777.196
				c-0.261,20.652-0.261,425,205.002,490.662c205.263,65.664,297.978-276.457,290.62-520.112L2349.747,777.196z"/>
			
				<linearGradient id="SVGID_00000054962156516695225970000008691782988219200959_" gradientUnits="userSpaceOnUse" x1="2603.2578" y1="1482.2452" x2="2583.7952" y2="1800.9495">
				<stop  offset="0" style="stop-color:#FF928E"/>
				<stop  offset="1" style="stop-color:#FE7062"/>
			</linearGradient>
			
				<rect x="2436.048" y="1513.592" style="fill:url(#SVGID_00000054962156516695225970000008691782988219200959_);" width="328.159" height="39.842"/>
			
				<linearGradient id="SVGID_00000028297661905402769730000016852503412306738065_" gradientUnits="userSpaceOnUse" x1="3250.2107" y1="583.8196" x2="2663.2424" y2="1423.3219">
				<stop  offset="0" style="stop-color:#FF928E"/>
				<stop  offset="1" style="stop-color:#FE7062"/>
			</linearGradient>
			<polygon style="fill:url(#SVGID_00000028297661905402769730000016852503412306738065_);" points="2764.207,1513.592 
				2436.048,1513.592 2519.1,1469.036 2681.155,1469.036 			"/>
			
				<linearGradient id="SVGID_00000099633369381488318910000011694253419155925656_" gradientUnits="userSpaceOnUse" x1="2624.876" y1="574.2471" x2="2727.2534" y2="-435.8848">
				<stop  offset="0" style="stop-color:#FF928E"/>
				<stop  offset="0.3458" style="stop-color:#FF867F"/>
				<stop  offset="1" style="stop-color:#FE7062"/>
			</linearGradient>
			<path style="fill:url(#SVGID_00000099633369381488318910000011694253419155925656_);" d="M2325.959,719.824
				c-18.018,1.096-32.758,14.435-32.758,29.643v31.1c0,15.207,14.749,26.855,32.776,25.886l562.551-30.268
				c18.028-0.97,32.778-14.205,32.778-29.412V711.25c0-15.208-14.742-26.753-32.759-25.656L2325.959,719.824z"/>
			
				<linearGradient id="SVGID_00000072270822972759626670000000457469076695915930_" gradientUnits="userSpaceOnUse" x1="2959.7036" y1="1004.0378" x2="2426.6738" y2="1671.0073">
				<stop  offset="0" style="stop-color:#FF928E"/>
				<stop  offset="1" style="stop-color:#FE7062"/>
			</linearGradient>
			<path style="fill:url(#SVGID_00000072270822972759626670000000457469076695915930_);" d="M2700.107,1299.996
				c-13.111,0-24.421-8.284-25.945-19.514c-1.638-12.073,8.656-22.981,22.994-24.367c2.731-0.274,191.507-20.207,209.405-123.531
				c3.019-17.42,2.684-40.179-16.05-49.675c-15.462-7.842-40.776-5.349-58.875,5.795c-10.291,6.336-21.552,17.435-16.763,34.327
				c3.353,11.824-5.315,23.698-19.364,26.521c-14.042,2.82-28.149-4.476-31.501-16.301c-8.683-30.626,5.056-60.563,36.754-80.08
				c35.215-21.688,83.216-24.964,116.729-7.975c19.588,9.93,50.939,35.314,40.817,93.741
				c-10.008,57.771-58.248,104.049-139.504,133.83c-58.348,21.386-113.382,26.863-115.696,27.085
				C2702.101,1299.949,2701.099,1299.996,2700.107,1299.996z"/>
			
				<linearGradient id="SVGID_00000109721546743747905720000000725586206494101378_" gradientUnits="userSpaceOnUse" x1="7935.4795" y1="1004.038" x2="7402.4497" y2="1671.0072" gradientTransform="matrix(-1 0 0 1 10180.1963 0)">
				<stop  offset="0" style="stop-color:#FF928E"/>
				<stop  offset="1" style="stop-color:#FE7062"/>
			</linearGradient>
			<path style="fill:url(#SVGID_00000109721546743747905720000000725586206494101378_);" d="M2504.314,1299.996
				c13.111,0,24.421-8.284,25.945-19.514c1.638-12.073-8.657-22.981-22.995-24.367c-2.731-0.274-191.508-20.207-209.406-123.531
				c-3.019-17.42-2.683-40.179,16.049-49.675c15.462-7.842,40.777-5.349,58.877,5.795c10.29,6.336,21.551,17.435,16.762,34.327
				c-3.353,11.824,5.315,23.698,19.363,26.521c14.042,2.82,28.149-4.476,31.502-16.301c8.684-30.626-5.056-60.563-36.754-80.08
				c-35.215-21.688-83.216-24.964-116.729-7.975c-19.588,9.93-50.939,35.314-40.817,93.741
				c10.007,57.771,58.248,104.049,139.504,133.83c58.348,21.386,113.382,26.863,115.696,27.085
				C2502.32,1299.949,2503.322,1299.996,2504.314,1299.996z"/>
			<path style="opacity:0.68;fill:#FFFFFF;" d="M2734.022,745.435c-2.254,0-4.141-1.766-4.265-4.046
				c-0.127-2.357,1.682-4.371,4.039-4.499l50.239-2.701c2.365-0.092,4.371,1.681,4.498,4.039c0.127,2.357-1.682,4.371-4.039,4.499
				l-50.239,2.701C2734.179,745.433,2734.1,745.435,2734.022,745.435z"/>
			<path style="opacity:0.68;fill:#FFFFFF;" d="M2349.725,766.112c-2.255,0-4.142-1.766-4.265-4.046
				c-0.127-2.357,1.682-4.372,4.039-4.499l300.133-16.147c2.346-0.138,4.371,1.682,4.498,4.039c0.127,2.357-1.682,4.371-4.039,4.499
				l-300.133,16.147C2349.882,766.11,2349.802,766.112,2349.725,766.112z"/>
			<path style="opacity:0.68;fill:#FFFFFF;" d="M2582.123,1222.022c-0.165,0-0.33-0.008-0.495-0.027
				c-54.349-6.252-97.797-50.508-129.135-131.54c-25.879-66.914-38.093-145.221-43.781-199.129
				c-0.246-2.348,1.455-4.453,3.804-4.701c2.353-0.224,4.453,1.455,4.701,3.803c9.766,92.542,45.429,309.274,165.389,323.07
				c2.347,0.271,4.029,2.39,3.76,4.737C2586.113,1220.415,2584.265,1222.022,2582.123,1222.022z"/>
			<path style="opacity:0.68;fill:#FFFFFF;" d="M2409.334,852.87c-2.236,0-4.115-1.737-4.262-3.998
				c-0.802-12.339-1.017-19.437-1.025-19.733c-0.071-2.361,1.787-4.33,4.146-4.401c2.53-0.156,4.332,1.787,4.401,4.146
				c0.002,0.071,0.221,7.262,1.012,19.433c0.153,2.357-1.634,4.39-3.989,4.545C2409.522,852.868,2409.428,852.87,2409.334,852.87z"
				/>
		</g>
		<g>
			<g>
				<g>
					<path style="fill:#BDD0FB;" d="M2317.622,3215.506l872.676,0.001v-174.666l-872.676,0.001
						C2336.301,3040.842,2336.301,3215.506,2317.622,3215.506z"/>
					
						<linearGradient id="SVGID_00000173859744904234747270000002888400831945073807_" gradientUnits="userSpaceOnUse" x1="3147.5303" y1="2707.7434" x2="2440.5664" y2="3475.6514">
						<stop  offset="0" style="stop-color:#4F52FF"/>
						<stop  offset="1" style="stop-color:#4042E2"/>
					</linearGradient>
					<path style="fill:url(#SVGID_00000173859744904234747270000002888400831945073807_);" d="M3190.298,3171.798v-79.935
						c0-28.178-17.246-51.021-38.519-51.021h-830.477c-16.729,0-30.292-13.562-30.292-30.292v0c0-5.083,4.121-9.204,9.204-9.204
						h907.647c20.815,0,53.863,32.727,53.863,73.096v111.638c0,38.063-32.083,68.919-51.709,68.919h-905.027
						c-7.72,0-13.978-6.258-13.978-13.978c0-14.092,11.424-25.516,25.516-25.516H3157.3
						C3175.524,3215.506,3190.298,3195.937,3190.298,3171.798z"/>
				</g>
				
					<linearGradient id="SVGID_00000121969619741633772590000011887331448060836537_" gradientUnits="userSpaceOnUse" x1="2344.4292" y1="3076.6802" x2="3169.5056" y2="3076.6802">
					<stop  offset="0" style="stop-color:#DAE3FE"/>
					<stop  offset="1" style="stop-color:#E9EFFD"/>
				</linearGradient>
				<path style="fill:url(#SVGID_00000121969619741633772590000011887331448060836537_);" d="M3166.093,3080.093h-818.251
					c-1.886,0-3.413-1.528-3.413-3.413c0-1.885,1.526-3.413,3.413-3.413h818.251c1.886,0,3.413,1.528,3.413,3.413
					C3169.506,3078.565,3167.979,3080.093,3166.093,3080.093z"/>
				
					<linearGradient id="SVGID_00000154405013965224609210000016334642495939536522_" gradientUnits="userSpaceOnUse" x1="2344.4292" y1="3102.6047" x2="3169.5056" y2="3102.6047">
					<stop  offset="0" style="stop-color:#DAE3FE"/>
					<stop  offset="1" style="stop-color:#E9EFFD"/>
				</linearGradient>
				<path style="fill:url(#SVGID_00000154405013965224609210000016334642495939536522_);" d="M3166.093,3106.017h-818.251
					c-1.886,0-3.413-1.528-3.413-3.413s1.526-3.413,3.413-3.413h818.251c1.886,0,3.413,1.528,3.413,3.413
					S3167.979,3106.017,3166.093,3106.017z"/>
				
					<linearGradient id="SVGID_00000127020493777287654500000005347003970701152677_" gradientUnits="userSpaceOnUse" x1="2344.4292" y1="3128.531" x2="3169.5056" y2="3128.531">
					<stop  offset="0" style="stop-color:#DAE3FE"/>
					<stop  offset="1" style="stop-color:#E9EFFD"/>
				</linearGradient>
				<path style="fill:url(#SVGID_00000127020493777287654500000005347003970701152677_);" d="M3166.093,3131.944h-818.251
					c-1.886,0-3.413-1.528-3.413-3.413c0-1.885,1.526-3.413,3.413-3.413h818.251c1.886,0,3.413,1.528,3.413,3.413
					C3169.506,3130.416,3167.979,3131.944,3166.093,3131.944z"/>
				
					<linearGradient id="SVGID_00000154420312276689116930000003522994794399500471_" gradientUnits="userSpaceOnUse" x1="2344.4292" y1="3154.457" x2="3169.5056" y2="3154.457">
					<stop  offset="0" style="stop-color:#DAE3FE"/>
					<stop  offset="1" style="stop-color:#E9EFFD"/>
				</linearGradient>
				<path style="fill:url(#SVGID_00000154420312276689116930000003522994794399500471_);" d="M3166.093,3157.87h-818.251
					c-1.886,0-3.413-1.528-3.413-3.413c0-1.885,1.526-3.413,3.413-3.413h818.251c1.886,0,3.413,1.528,3.413,3.413
					C3169.506,3156.342,3167.979,3157.87,3166.093,3157.87z"/>
				
					<linearGradient id="SVGID_00000157294915787559371870000005497458220553134210_" gradientUnits="userSpaceOnUse" x1="2344.4292" y1="3180.3833" x2="3169.5056" y2="3180.3833">
					<stop  offset="0" style="stop-color:#DAE3FE"/>
					<stop  offset="1" style="stop-color:#E9EFFD"/>
				</linearGradient>
				<path style="fill:url(#SVGID_00000157294915787559371870000005497458220553134210_);" d="M3166.093,3183.796h-818.251
					c-1.886,0-3.413-1.528-3.413-3.413s1.526-3.413,3.413-3.413h818.251c1.886,0,3.413,1.528,3.413,3.413
					S3167.979,3183.796,3166.093,3183.796z"/>
			</g>
			<g>
				
					<linearGradient id="SVGID_00000003086941049360930340000008253229497840395188_" gradientUnits="userSpaceOnUse" x1="2887.8645" y1="2649.7947" x2="3474.9478" y2="1005.9595">
					<stop  offset="0" style="stop-color:#FE7062"/>
					<stop  offset="1" style="stop-color:#FF928E"/>
				</linearGradient>
				<path style="fill:url(#SVGID_00000003086941049360930340000008253229497840395188_);" d="M2417.064,3000.553h758.753
					c7.314,0,13.244-5.93,13.244-13.244v-163.057c0-7.314-5.93-13.244-13.244-13.244h-758.753c-7.314,0-13.244,5.929-13.244,13.244
					v163.057C2403.82,2994.623,2409.75,3000.553,2417.064,3000.553z"/>
				
					<linearGradient id="SVGID_00000016060920837074207810000000642018165674679211_" gradientUnits="userSpaceOnUse" x1="3519.4678" y1="1930.3101" x2="2455.553" y2="4160.8638">
					<stop  offset="0" style="stop-color:#FF928E"/>
					<stop  offset="1" style="stop-color:#FE7062"/>
				</linearGradient>
				<path style="fill:url(#SVGID_00000016060920837074207810000000642018165674679211_);" d="M3015.312,2978.769h77.765
					c4,0,7.242-3.242,7.242-7.242v-131.493c0-4-3.242-7.242-7.242-7.242h-77.765c-4,0-7.242,3.242-7.242,7.242v131.493
					C3008.07,2975.527,3011.313,2978.769,3015.312,2978.769z"/>
				
					<linearGradient id="SVGID_00000007425843946579103490000017105601406314013587_" gradientUnits="userSpaceOnUse" x1="3443.3149" y1="1928.5359" x2="2411.4863" y2="4091.8193">
					<stop  offset="0" style="stop-color:#FF928E"/>
					<stop  offset="1" style="stop-color:#FE7062"/>
				</linearGradient>
				<path style="fill:url(#SVGID_00000007425843946579103490000017105601406314013587_);" d="M2963.559,2978.769h27.274
					c2.027,0,3.669-1.643,3.669-3.669v-138.638c0-2.027-1.643-3.67-3.67-3.67h-27.273c-2.027,0-3.669,1.643-3.669,3.67v138.638
					C2959.889,2977.126,2961.532,2978.769,2963.559,2978.769z"/>
			</g>
		</g>
		
			<linearGradient id="SVGID_00000021119991359769543630000008683878898393399946_" gradientUnits="userSpaceOnUse" x1="2823.3601" y1="1686.8153" x2="1157.1426" y2="3283.9126">
			<stop  offset="0" style="stop-color:#4F52FF"/>
			<stop  offset="1" style="stop-color:#4042E2"/>
		</linearGradient>
		<path style="fill:url(#SVGID_00000021119991359769543630000008683878898393399946_);" d="M521.393,3236.107
			c0,0,1486.993-291.689,2417.961-1633.116l-107.861-37.336c-29.821-10.323-36.175-49.676-11.117-68.859l342.375-262.111
			c25.982-19.891,63.405-0.663,62.362,32.043l-13.918,436.511c-0.928,29.126-34.623,44.781-57.482,26.707l-91.505-72.353
			c0,0-474.718,1291.854-1389.299,1578.514H521.393z"/>
	</g>
</g>
</svg>
